# xmcd
#
# Track frame offsets:
#	180
#	13370
#	28612
#	40802
#	53710
#	66757
#	78650
#	92760
#	107960
#	120072
#	133405
#	144955
#	157515
#	170775
#	185460
#	196880
#	210922
#	225660
#	240005
#	252417
#	268885
#	282900
#
# Disc length: 3947
#
# Revision: 1
# Processed by: cddbd v1.5.1PL0 Copyright (c) Steve Scherf et al.
# Submitted via: ExactAudioCopy v0.90b4
# Normalized: r0:DSETVAR1,TDELIM( - )
#
DISCID=2b0f6916
DTITLE=Various Artist - Keep your arm around me
DYEAR=1996
DGENRE=Delta Blues
TTITLE0=Mississipi John Hurt - Ain't no telling
TTITLE1=Mississipi John Hurt - Frankie
TTITLE2=Big Bill Broonzy - Mississipi river blues
TTITLE3=Big Bill Broonzy - How you want it done
TTITLE4=Bukka White - Special steam line
TTITLE5=Bukka White - Parchman farm blues
TTITLE6=Bo Carter - Banana in your fruit basket
TTITLE7=Mississipi Sheikhs - Driving that thing
TTITLE8=Charly Patton - Hang it on the wall
TTITLE9=Robert Johnson - I believe I'll dust my broom
TTITLE10=Robert Johnson - Phonograph blues
TTITLE11=Big Joe Williams - I'm getting wild about her
TTITLE12=Big Joe Williams - Meet me around the corner
TTITLE13=Arthur "Big Boy" Crudup - Who's been foolin' you
TTITLE14=Arthur "Big Boy" Crudup - Keep your arms around me
TTITLE15=Son House - Special rider blues
TTITLE16=Joe Calicott - Travelling mama blues
TTITLE17=Joe Calicott - Fare thee well blues
TTITLE18=Skip James - Cherry ball blues
TTITLE19=Tommy Johnson - Canned heat blues
TTITLE20=J. D. Short - Tennessee peaches blues
TTITLE21=The delta boys - Black gal swing
EXTD=
EXTT0=
EXTT1=
EXTT2=
EXTT3=
EXTT4=
EXTT5=
EXTT6=
EXTT7=
EXTT8=
EXTT9=
EXTT10=
EXTT11=
EXTT12=
EXTT13=
EXTT14=
EXTT15=
EXTT16=
EXTT17=
EXTT18=
EXTT19=
EXTT20=
EXTT21=
PLAYORDER=
